<svg id="Team_Surrey_Logo" data-name="Team Surrey Logo" xmlns="http://www.w3.org/2000/svg"
     xmlns:xlink="http://www.w3.org/1999/xlink" viewBox="0 0 1000 457.41">
    <defs>
        <style>
            .cls-1{fill:#fff;}
            .cls-2{fill:#fdbe40;}
            .cls-3{fill:url(#linear-gradient);}
        </style>
        <linearGradient id="linear-gradient" x1="39.62" y1="222.94" x2="964.74" y2="222.94"
                        gradientTransform="matrix(1, 0, 0, -1, 0, 450.82)" gradientUnits="userSpaceOnUse">
            <stop offset="0" stop-color="#fcc133"/>
            <stop offset="0.31" stop-color="#fcc133"/>
            <stop offset="0.36" stop-color="#edb530"/>
            <stop offset="0.48" stop-color="#c8982b"/>
            <stop offset="0.58" stop-color="#b18728"/>
            <stop offset="0.64" stop-color="#a98127"/>
            <stop offset="0.85" stop-color="#fcc133"/>
        </linearGradient>
    </defs>
    <g id="Team_Surrey_Logo-2" data-name="Team Surrey Logo-2">
        <path class="cls-1"
              d="M449.94,176c0,10.4-5.22,15.74-13.81,15.74s-13.8-5.53-13.8-16.21v-37.1H408.25v37.48c0,19.3,10.51,29.14,27.7,29.14S464,195.25,464,175.39v-37H449.94V176Z"/>
        <polygon class="cls-1"
                 points="698.72 138.36 683.18 164.69 667.91 138.36 651.45 138.36 676.05 178.09 676.05 203.95 690.13 203.95 690.13 177.81 714.72 138.36 698.72 138.36 698.72 138.36"/>
        <path class="cls-1"
              d="M512.89,160.94c0,5.53-3.93,9.28-10.79,9.28H487.83V151.38h14c6.86,0,11.07,3.19,11.07,9.37v.19Zm14.26-.75V160c0-6.18-1.92-11.34-5.49-15-4.2-4.31-10.51-6.66-18.65-6.66H473.75V204h14.08V183H498.9l13.71,21h16.46l-15.63-23.42c8.13-3.1,13.71-9.75,13.71-20.34"/>
        <path class="cls-1"
              d="M577.09,160.94c0,5.53-3.94,9.28-10.79,9.28H552V151.38h14c6.86,0,11.07,3.19,11.07,9.37v.19Zm14.26-.75V160c0-6.18-1.92-11.34-5.49-15-4.2-4.31-10.51-6.66-18.65-6.66H538V204H552V183H563.1l13.71,21h16.46l-15.63-23.42c8.13-3.1,13.71-9.75,13.71-20.34"/>
        <path class="cls-1"
              d="M380.24,164.66c-11.1-2.91-13.85-4.32-13.85-8.64v-.19c0-3.2,2.84-5.74,8.25-5.74s10.83,2.38,16.42,6.3l.4-.65L397.79,145a36.58,36.58,0,0,0-23-7.71c-13.11,0-22.47,7.9-22.47,19.83v.19c0,13.07,8.35,16.74,21.28,20.12,10.73,2.82,12.94,4.7,12.94,8.37V186c0,3.85-3.49,6.2-9.27,6.2-7.29,0-13.31-3.06-19.06-7.9l-6.8,11.52A40.33,40.33,0,0,0,377,205c13.86,0,23.58-7.34,23.58-20.4v-.19c0-11.47-7.34-16.27-20.36-19.75"/>
        <polygon class="cls-1"
                 points="601.61 203.95 646.69 203.95 646.69 191.12 615.6 191.12 615.6 177.86 641.6 177.86 641.6 164.45 615.6 164.45 615.6 151.19 646.69 151.19 646.69 138.35 601.61 138.35 601.61 203.95 601.61 203.95"/>
        <polygon class="cls-2"
                 points="86.87 203.92 94.37 203.92 94.37 145.2 116.38 145.2 116.38 138.36 64.86 138.36 64.86 145.2 86.87 145.2 86.87 203.92 86.87 203.92"/>
        <polygon class="cls-2"
                 points="130.24 203.92 178.1 203.92 178.1 197.18 137.64 197.18 137.64 174.23 173.41 174.23 173.41 167.49 137.64 167.49 137.64 145.1 177.63 145.1 177.63 138.36 130.24 138.36 130.24 203.92 130.24 203.92"/>
        <path class="cls-2"
              d="M255.88,203.92l-29.88-66h-6.93l-29.88,66h7.59l7.77-17.33h35.69l7.68,17.33Zm-18.54-24H207.46l15-33.43,14.9,33.43Z"/>
        <polygon class="cls-2"
                 points="266.98 203.92 274.19 203.92 274.19 150.91 298.07 185.94 298.45 185.94 322.33 150.82 322.33 203.92 329.73 203.92 329.73 138.36 322.24 138.36 298.36 174.14 274.47 138.36 266.98 138.36 266.98 203.92 266.98 203.92"/>
    </g>
    <g id="Karting_Club_Text" data-name="Karting Club Text">
        <path class="cls-1"
              d="M143.09,303.64h-11l-17.68-23.31-8.07,8.29v15h-9v-51.8h9v26l24.64-26h11.18l-21.54,22.27Z"/>
        <path class="cls-1"
              d="M199.49,303.64h-9.63l-5.25-12.5h-24.5l-5.33,12.5h-9.32l22.79-52.17h8.44Zm-27.17-41.29-8.88,20.72h17.84Z"/>
        <path class="cls-1"
              d="M241.6,303.64l-12.77-18.05H217.39v18.05h-9v-51.8h23.09a26.18,26.18,0,0,1,8,1.15,17.4,17.4,0,0,1,6.06,3.25,14.08,14.08,0,0,1,3.82,5.18,17.19,17.19,0,0,1,1.33,6.85,16.94,16.94,0,0,1-.93,5.81,15,15,0,0,1-2.55,4.51,15.26,15.26,0,0,1-3.89,3.33,18.88,18.88,0,0,1-5,2.11l14,19.61Zm-3-41.4q-2.82-2.19-7.95-2.19H217.39v17.47h13.37a11.88,11.88,0,0,0,7.79-2.38,7.85,7.85,0,0,0,2.9-6.39A7.75,7.75,0,0,0,238.63,262.24Z"/>
        <path class="cls-1" d="M283.56,303.64h-9.18V260.28H258v-8.44h42v8.44H283.56Z"/>
        <path class="cls-1" d="M319.15,251.84v51.8h-9v-51.8Z"/>
        <path class="cls-1" d="M369.18,251.84h9v51.8H370.6l-28.5-36.85v36.85h-9v-51.8h8.42l27.69,35.82Z"/>
        <path class="cls-1"
              d="M433.46,299.57a31.81,31.81,0,0,1-10.84,4.33,32.85,32.85,0,0,1-6.52.63,28.88,28.88,0,0,1-11-2,25,25,0,0,1-8.48-5.63,25.3,25.3,0,0,1-5.44-8.47,28.72,28.72,0,0,1-1.92-10.59,27.51,27.51,0,0,1,2-10.36,25.91,25.91,0,0,1,14-14.35A26.66,26.66,0,0,1,416,251a36.5,36.5,0,0,1,6.18.48,28.59,28.59,0,0,1,5.14,1.37,26.15,26.15,0,0,1,4.48,2.18,34.29,34.29,0,0,1,4.1,3l-5.77,6.88a35.43,35.43,0,0,0-3-2.29,18.92,18.92,0,0,0-3.26-1.74,19.76,19.76,0,0,0-3.74-1.11,22.9,22.9,0,0,0-4.47-.41,15.3,15.3,0,0,0-6.63,1.45,16.53,16.53,0,0,0-5.33,4,19,19,0,0,0-3.55,5.85,19.6,19.6,0,0,0-1.29,7.12,21.25,21.25,0,0,0,1.25,7.42,17.24,17.24,0,0,0,3.59,5.89,16.8,16.8,0,0,0,5.55,3.9,17.85,17.85,0,0,0,7.22,1.41,21.63,21.63,0,0,0,6.92-1.08,19.5,19.5,0,0,0,5.59-2.87v-9.75H415.66v-7.91h22v21.75A37.27,37.27,0,0,1,433.46,299.57Z"/>
        <path class="cls-1"
              d="M512.65,299.17a27.78,27.78,0,0,1-4.7,2.88,23.57,23.57,0,0,1-5.52,1.85,32.22,32.22,0,0,1-6.62.63,26.32,26.32,0,0,1-10.51-2.07A25.88,25.88,0,0,1,477,296.8a26.16,26.16,0,0,1-5.51-8.48,27.47,27.47,0,0,1-2-10.51,27.88,27.88,0,0,1,2-10.43,25.83,25.83,0,0,1,13.95-14.32A26.94,26.94,0,0,1,496.18,251a32.93,32.93,0,0,1,6.47.59,26.37,26.37,0,0,1,5.37,1.67,24.46,24.46,0,0,1,4.51,2.55,34.85,34.85,0,0,1,3.93,3.26l-5.85,6.73a29.14,29.14,0,0,0-6.59-4.66,17.07,17.07,0,0,0-7.92-1.78,16.11,16.11,0,0,0-6.84,1.45,17,17,0,0,0-5.44,3.92,17.6,17.6,0,0,0-3.55,5.81,20.11,20.11,0,0,0-1.26,7.18,20.39,20.39,0,0,0,1.26,7.21,18,18,0,0,0,3.55,5.89,16.91,16.91,0,0,0,5.44,4,16.25,16.25,0,0,0,6.84,1.44,17.12,17.12,0,0,0,8.15-1.81,32.05,32.05,0,0,0,6.73-4.93l5.85,5.92A33,33,0,0,1,512.65,299.17Z"/>
        <path class="cls-1" d="M526.37,251.84h9v43.59h27.24v8.21H526.37Z"/>
        <path class="cls-1"
              d="M614.22,281.22a29.57,29.57,0,0,1-1.59,10.14,19.83,19.83,0,0,1-4.48,7.29,18,18,0,0,1-7,4.36,27.49,27.49,0,0,1-9.22,1.45,26.9,26.9,0,0,1-9.1-1.45,18.35,18.35,0,0,1-7-4.33,19.33,19.33,0,0,1-4.44-7.14,28.87,28.87,0,0,1-1.55-9.88V251.84h9v29.45q0,7.26,3.5,11t9.67,3.77q6.1,0,9.6-3.62t3.5-10.81V251.84h9Z"/>
        <path class="cls-1"
              d="M662.33,255.4a11.61,11.61,0,0,1,4.58,9.71,13.06,13.06,0,0,1-.62,4.22,12.06,12.06,0,0,1-1.62,3.23,11.38,11.38,0,0,1-2.34,2.41,20.12,20.12,0,0,1-2.76,1.78,26.13,26.13,0,0,1,4.16,1.88,13.74,13.74,0,0,1,3.24,2.55,10.47,10.47,0,0,1,2.09,3.51,13.78,13.78,0,0,1,.74,4.69,13.29,13.29,0,0,1-1.37,6.14,12.49,12.49,0,0,1-3.88,4.47,18,18,0,0,1-6,2.73,31,31,0,0,1-7.84.92H626.73v-51.8h23.19Q657.75,251.84,662.33,255.4Zm-7.1,16.6a6,6,0,0,0,2.65-5.4,5.84,5.84,0,0,0-2.32-5c-1.55-1.16-3.8-1.75-6.75-1.75h-13v13.84h12.39A12.75,12.75,0,0,0,655.23,272Zm2.88,21.76a6.07,6.07,0,0,0,2.66-5.36,6,6,0,0,0-2.62-5.18c-1.75-1.24-4.41-1.85-8-1.85H635.76v14.21h15A12.77,12.77,0,0,0,658.11,293.76Z"/>
    </g>
    <path id="Start_Line" data-name="Start Line" class="cls-3"
          d="M39.62,231.62v-6.83H934.34l-1.23,6.83Zm738.1,0H726.09l-10.14,51h51.63l10.14-51Zm41.49,51H767.59l-10.14,51.62h51.62Zm-61.75,51.62H705.84L695.7,385.85h51.62ZM799,386.49H747.33l-10.14,51.62h51.62Zm61.76-52.26H809.09L799,385.85h51.62Zm41.49,52.26H850.57l-10.14,51.62h51.63ZM881,231.62H829.35l-10.14,51h51.62l10.14-51Zm41.48,51H870.83l-10.14,51.62h51.62ZM820,17.66H768.38L758.24,69.28h51.62Zm41.49,51.62H809.87l-10.14,51.63h51.62ZM903,120.91H851.38l-10.14,51.62h51.62Zm41.48,52.26H892.86l-10.14,51.62h51.62ZM923.26,17.66H871.63L861.49,69.28h51.63Zm41.48,51.62H913.12L903,120.91H954.6Zm-124,103.89H789.17L779,224.79h51.62ZM799.3,121.54H747.68l-10.14,51.63h51.62Z"/>
</svg>